# This file uses centimeters as units for non-parametric coordinates.

mtllib Case.mtl
g default
v 0.199605 1.302855 -0.231116
v 0.245913 1.302855 -0.231116
v 0.199605 1.349163 -0.231116
v 0.245913 1.349163 -0.231116
v 0.199605 1.349163 -0.277425
v 0.245913 1.349163 -0.277425
v 0.199605 1.302855 -0.277425
v 0.213977 1.324396 -0.249555
v 0.199605 1.349163 -1.055945
v 0.245913 1.349163 -1.055945
v 0.213977 1.324396 -1.083815
v 0.199605 1.302855 -1.055945
v 0.199605 1.349163 -1.109387
v 0.245913 1.349163 -1.109387
v 0.245913 1.302855 -1.109387
v 0.199605 1.302855 -1.109387
v 1.706215 1.324396 -0.249555
v 1.674279 1.302855 -0.231116
v 1.674279 1.349163 -0.277425
v 1.674279 1.349163 -0.231116
v 1.674279 1.349163 -1.055945
v 1.706215 1.324396 -1.083815
v 1.674279 1.302855 -1.109387
v 1.674279 1.349163 -1.109387
v 1.722863 1.302855 -0.277425
v 1.722863 1.302855 -0.231116
v 1.722863 1.349163 -0.277425
v 1.722863 1.349163 -0.231116
v 1.722863 1.349163 -1.055945
v 1.722863 1.302855 -1.055945
v 1.722863 1.302855 -1.109387
v 1.722863 1.349163 -1.109387
v 0.199605 0.925304 -0.277425
v 0.245913 0.925304 -0.231116
v 0.199605 0.925304 -0.231116
v 0.199605 0.925304 -1.055945
v 0.199605 0.925304 -1.109387
v 0.245913 0.925304 -1.109387
v 1.674279 0.925304 -0.231116
v 1.722863 0.925304 -0.277425
v 1.722863 0.925304 -0.231116
v 1.674279 0.925304 -1.109387
v 1.722863 0.925304 -1.109387
v 1.722863 0.925304 -1.055945
v 0.223983 1.302855 -0.231116
v 0.223983 0.925304 -0.231116
v 0.223983 0.925304 -0.277425
v 0.223983 1.302855 -0.277425
v 0.223983 1.302855 -1.055945
v 0.223983 0.925304 -1.055945
v 0.223983 0.925304 -1.109387
v 0.223983 1.302855 -1.109387
v 0.223983 1.349163 -1.109387
v 0.223983 1.349163 -1.055945
v 0.223983 1.349163 -0.277425
v 0.223983 1.349163 -0.231116
v 1.699229 1.302855 -0.277425
v 1.699229 1.302855 -1.055945
v 1.699229 0.925304 -1.055945
v 1.699229 0.925304 -1.109387
v 1.699229 1.302855 -1.109387
v 1.699229 1.349163 -1.109387
v 1.699229 1.349163 -1.055945
v 1.699229 1.349163 -0.277425
v 1.699229 1.349163 -0.231116
v 1.699229 1.302855 -0.231116
v 1.699229 0.925304 -0.231116
v 1.699229 0.925304 -0.277425
v 0.199605 1.349163 -0.253461
v 0.223983 1.349163 -0.253461
v 0.245913 1.349163 -0.253461
v 1.674279 1.349163 -0.253461
v 1.699229 1.349163 -0.253461
v 1.722863 1.349163 -0.253461
v 1.722863 1.302855 -0.253461
v 1.722863 0.925304 -0.253461
v 1.699229 0.925304 -0.253461
v 1.674279 0.925304 -0.253461
v 1.674279 1.302855 -0.253461
v 0.245913 1.302855 -0.253461
v 0.245913 0.925304 -0.253461
v 0.223983 0.925304 -0.253461
v 0.199605 0.925304 -0.253461
v 0.199605 1.302855 -0.253461
v 0.199605 1.349163 -1.083136
v 0.223983 1.349163 -1.083136
v 0.245913 1.349163 -1.083136
v 1.674279 1.349163 -1.083136
v 1.699229 1.349163 -1.083136
v 1.722863 1.349163 -1.083136
v 1.722863 1.302855 -1.083136
v 1.722863 0.925304 -1.083136
v 1.699229 0.925304 -1.083136
v 1.674279 0.925304 -1.083136
v 1.674279 1.302855 -1.083136
v 0.245913 1.302855 -1.083136
v 0.245913 0.925304 -1.083136
v 0.223983 0.925304 -1.083136
v 0.199605 0.925304 -1.083136
v 0.199605 1.302855 -1.083136
v 0.245913 1.325259 -0.277425
v 1.674279 1.325259 -0.277425
v 1.674279 1.325259 -1.055945
v 0.245913 1.325259 -1.055945
vt 0.375000 0.000000
vt 0.625000 0.000000
vt 0.375000 0.250000
vt 0.625000 0.250000
vt 0.375000 0.500000
vt 0.625000 0.500000
vt 0.375000 0.750000
vt 0.625000 0.750000
vt 0.375000 1.000000
vt 0.625000 1.000000
vt 0.875000 0.000000
vt 0.875000 0.250000
vt 0.125000 0.000000
vt 0.125000 0.250000
vt 0.375000 0.500000
vt 0.625000 0.500000
vt 0.625000 0.750000
vt 0.375000 0.750000
vt 0.375000 0.500000
vt 0.625000 0.500000
vt 0.625000 0.750000
vt 0.375000 0.750000
vt 0.625000 0.000000
vt 0.875000 0.000000
vt 0.875000 0.250000
vt 0.625000 0.250000
vt 0.625000 0.500000
vt 0.625000 0.750000
vt 0.625000 0.750000
vt 0.625000 0.500000
vt 0.625000 0.000000
vt 0.875000 0.000000
vt 0.875000 0.250000
vt 0.625000 0.250000
vt 0.625000 0.500000
vt 0.625000 0.750000
vt 0.625000 0.750000
vt 0.625000 0.500000
vt 0.375000 0.750000
vt 0.625000 1.000000
vt 0.375000 1.000000
vt 0.375000 0.750000
vt 0.375000 0.750000
vt 0.625000 0.750000
vt 0.625000 0.000000
vt 0.875000 0.000000
vt 0.625000 0.000000
vt 0.625000 0.750000
vt 0.625000 0.750000
vt 0.625000 0.750000
vt 0.506607 0.000000
vt 0.506607 1.000000
vt 0.506607 1.000000
vt 0.506607 0.750000
vt 0.506607 0.750000
vt 0.506607 0.750000
vt 0.506607 0.750000
vt 0.506607 0.750000
vt 0.506607 0.750000
vt 0.506607 0.500000
vt 0.506607 0.500000
vt 0.506607 0.500000
vt 0.506607 0.250000
vt 0.875000 0.000000
vt 0.625000 0.750000
vt 0.625000 0.750000
vt 0.625000 0.750000
vt 0.625000 0.750000
vt 0.625000 0.500000
vt 0.625000 0.500000
vt 0.875000 0.250000
vt 0.625000 0.250000
vt 0.625000 0.000000
vt 0.625000 0.000000
vt 0.875000 0.000000
vt 0.254374 0.250000
vt 0.375000 0.370626
vt 0.506607 0.370626
vt 0.625000 0.370626
vt 0.745626 0.250000
vt 0.745626 0.250000
vt 0.745626 0.250000
vt 0.745626 0.250000
vt 0.745626 0.000000
vt 0.745626 0.000000
vt 0.745626 0.000000
vt 0.745626 0.000000
vt 0.745626 0.000000
vt 0.685313 0.439687
vt 0.625000 0.879374
vt 0.506607 0.879374
vt 0.375000 0.879374
vt 0.254374 0.000000
vt 0.375000 0.879374
vt 0.375000 0.500000
vt 0.506607 0.500000
vt 0.625000 0.500000
vt 0.625000 0.500000
vt 0.625000 0.500000
vt 0.625000 0.500000
vt 0.625000 0.750000
vt 0.625000 0.750000
vt 0.625000 0.750000
vt 0.625000 0.750000
vt 0.625000 0.750000
vt 0.625000 0.750000
vt 0.625000 0.750000
vt 0.506607 0.750000
vt 0.375000 0.750000
vt 0.375000 0.750000
vt 0.625000 0.629049
vt 0.875000 0.120951
vt 0.875000 0.120951
vt 0.625000 0.629049
vt 0.625000 0.629049
vn 0.000000 0.000000 1.000000
vn 0.000000 0.000000 1.000000
vn 0.000000 0.000000 1.000000
vn 0.000000 0.000000 1.000000
vn 0.000000 1.000000 0.000000
vn 0.000000 1.000000 0.000000
vn 0.000000 1.000000 0.000000
vn 0.000000 1.000000 0.000000
vn 0.000000 0.000000 -1.000000
vn 0.000000 0.000000 -1.000000
vn 0.000000 0.000000 -1.000000
vn 0.000000 0.000000 -1.000000
vn 1.000000 0.000000 0.000000
vn 1.000000 0.000000 0.000000
vn 1.000000 0.000000 0.000000
vn 1.000000 0.000000 0.000000
vn -1.000000 0.000000 0.000000
vn -1.000000 0.000000 0.000000
vn -1.000000 0.000000 0.000000
vn -1.000000 0.000000 0.000000
vn 0.000000 1.000000 0.000000
vn 0.000000 1.000000 0.000000
vn 0.000000 1.000000 0.000000
vn 0.000000 1.000000 0.000000
vn 0.027022 -0.999635 0.000000
vn 0.027022 -0.999635 0.000000
vn 0.027022 -0.999635 0.000000
vn 0.027022 -0.999635 0.000000
vn 0.906940 0.421260 0.000000
vn 0.906940 0.421260 0.000000
vn 0.906940 0.421260 0.000000
vn 0.906940 0.421260 0.000000
vn -1.000000 0.000000 0.000000
vn -1.000000 0.000000 0.000000
vn -1.000000 0.000000 0.000000
vn -1.000000 0.000000 0.000000
vn 0.000000 1.000000 0.000000
vn 0.000000 1.000000 0.000000
vn 0.000000 1.000000 0.000000
vn 0.000000 1.000000 0.000000
vn 1.000000 0.000000 0.000000
vn 1.000000 0.000000 0.000000
vn 1.000000 0.000000 0.000000
vn 1.000000 0.000000 0.000000
vn 0.000000 -1.000000 0.000000
vn 0.000000 -1.000000 0.000000
vn 0.000000 -1.000000 0.000000
vn 0.000000 -1.000000 0.000000
vn -1.000000 0.000000 0.000000
vn -1.000000 0.000000 0.000000
vn -1.000000 0.000000 0.000000
vn -1.000000 0.000000 0.000000
vn 0.000000 0.178383 -0.983961
vn 0.000000 0.178383 -0.983961
vn 0.000000 0.178383 -0.983961
vn 0.000000 0.178383 -0.983961
vn 0.000000 -0.999521 -0.030962
vn 0.000000 -0.999521 -0.030962
vn 0.000000 -0.999521 -0.030962
vn 0.000000 -0.999521 -0.030962
vn 0.000000 1.000000 0.000000
vn 0.000000 1.000000 0.000000
vn 0.000000 1.000000 0.000000
vn 0.000000 1.000000 0.000000
vn 0.000000 0.000000 1.000000
vn 0.000000 0.000000 1.000000
vn 0.000000 0.000000 1.000000
vn 0.000000 0.000000 1.000000
vn 0.000000 -0.999521 0.030962
vn 0.000000 -0.999521 0.030962
vn 0.000000 -0.999521 0.030962
vn 0.000000 -0.999521 0.030962
vn 0.000000 -1.000000 0.000000
vn 0.000000 -1.000000 0.000000
vn 0.000000 -1.000000 0.000000
vn 0.000000 -1.000000 0.000000
vn 0.000000 0.000000 -1.000000
vn 0.000000 0.000000 -1.000000
vn 0.000000 0.000000 -1.000000
vn 0.000000 0.000000 -1.000000
vn 0.000000 1.000000 0.000000
vn 0.000000 1.000000 0.000000
vn 0.000000 1.000000 0.000000
vn 0.000000 1.000000 0.000000
vn 0.000000 -1.000000 0.000000
vn 0.000000 -1.000000 0.000000
vn 0.000000 -1.000000 0.000000
vn 0.000000 -1.000000 0.000000
vn 0.000000 1.000000 0.000000
vn 0.000000 1.000000 0.000000
vn 0.000000 1.000000 0.000000
vn 0.000000 1.000000 0.000000
vn 0.000000 0.000000 1.000000
vn 0.000000 0.000000 1.000000
vn 0.000000 0.000000 1.000000
vn 0.000000 0.000000 1.000000
vn 0.000000 -1.000000 0.000000
vn 0.000000 -1.000000 0.000000
vn 0.000000 -1.000000 0.000000
vn 0.000000 -1.000000 0.000000
vn 0.000000 0.000000 -1.000000
vn 0.000000 0.000000 -1.000000
vn 0.000000 0.000000 -1.000000
vn 0.000000 0.000000 -1.000000
vn 0.000000 1.000000 0.000000
vn 0.000000 1.000000 0.000000
vn 0.000000 1.000000 0.000000
vn 0.000000 1.000000 0.000000
vn -0.027022 -0.999635 0.000000
vn -0.027022 -0.999635 0.000000
vn -0.027022 -0.999635 0.000000
vn -0.027022 -0.999635 0.000000
vn 0.000000 1.000000 0.000000
vn 0.000000 1.000000 0.000000
vn 0.000000 1.000000 0.000000
vn 0.000000 1.000000 0.000000
vn 1.000000 0.000000 0.000000
vn 1.000000 0.000000 0.000000
vn 1.000000 0.000000 0.000000
vn 1.000000 0.000000 0.000000
vn 0.000000 -1.000000 0.000000
vn 0.000000 -1.000000 0.000000
vn 0.000000 -1.000000 0.000000
vn 0.000000 -1.000000 0.000000
vn 0.000000 0.000000 1.000000
vn 0.000000 0.000000 1.000000
vn 0.000000 0.000000 1.000000
vn 0.000000 0.000000 1.000000
vn -1.000000 0.000000 0.000000
vn -1.000000 0.000000 0.000000
vn -1.000000 0.000000 0.000000
vn -1.000000 0.000000 0.000000
vn -1.000000 0.000000 0.000000
vn -1.000000 0.000000 0.000000
vn -1.000000 0.000000 0.000000
vn -1.000000 0.000000 0.000000
vn 0.000000 0.000000 -1.000000
vn 0.000000 0.000000 -1.000000
vn 0.000000 0.000000 -1.000000
vn 0.000000 0.000000 -1.000000
vn 1.000000 0.000000 0.000000
vn 1.000000 0.000000 0.000000
vn 1.000000 0.000000 0.000000
vn 1.000000 0.000000 0.000000
vn 0.000000 0.000000 -1.000000
vn 0.000000 0.000000 -1.000000
vn 0.000000 0.000000 -1.000000
vn 0.000000 0.000000 -1.000000
vn 1.000000 0.000000 0.000000
vn 1.000000 0.000000 0.000000
vn 1.000000 0.000000 0.000000
vn 1.000000 0.000000 0.000000
vn 0.000000 0.000000 1.000000
vn 0.000000 0.000000 1.000000
vn 0.000000 0.000000 1.000000
vn 0.000000 0.000000 1.000000
vn -1.000000 0.000000 0.000000
vn -1.000000 0.000000 0.000000
vn -1.000000 0.000000 0.000000
vn -1.000000 0.000000 0.000000
vn 0.000000 0.000000 -1.000000
vn 0.000000 0.000000 -1.000000
vn 0.000000 0.000000 -1.000000
vn 0.000000 0.000000 -1.000000
vn 1.000000 0.000000 0.000000
vn 1.000000 0.000000 0.000000
vn 1.000000 0.000000 0.000000
vn 1.000000 0.000000 0.000000
vn 0.000000 0.000000 1.000000
vn 0.000000 0.000000 1.000000
vn 0.000000 0.000000 1.000000
vn 0.000000 0.000000 1.000000
vn 0.000000 0.000000 1.000000
vn 0.000000 0.000000 1.000000
vn 0.000000 0.000000 1.000000
vn 0.000000 0.000000 1.000000
vn 0.000000 -1.000000 0.000000
vn 0.000000 -1.000000 0.000000
vn 0.000000 -1.000000 0.000000
vn 0.000000 -1.000000 0.000000
vn 0.000000 0.000000 -1.000000
vn 0.000000 0.000000 -1.000000
vn 0.000000 0.000000 -1.000000
vn 0.000000 0.000000 -1.000000
vn 0.000000 -1.000000 0.000000
vn 0.000000 -1.000000 0.000000
vn 0.000000 -1.000000 0.000000
vn 0.000000 -1.000000 0.000000
vn 0.000000 0.000000 1.000000
vn 0.000000 0.000000 1.000000
vn 0.000000 0.000000 1.000000
vn 0.000000 0.000000 1.000000
vn 0.000000 -1.000000 0.000000
vn 0.000000 -1.000000 0.000000
vn 0.000000 -1.000000 0.000000
vn 0.000000 -1.000000 0.000000
vn 0.000000 0.000000 -1.000000
vn 0.000000 0.000000 -1.000000
vn 0.000000 0.000000 -1.000000
vn 0.000000 0.000000 -1.000000
vn 0.000000 0.000000 -1.000000
vn 0.000000 0.000000 -1.000000
vn 0.000000 0.000000 -1.000000
vn 0.000000 0.000000 -1.000000
vn 0.000000 1.000000 0.000000
vn 0.000000 1.000000 0.000000
vn 0.000000 1.000000 0.000000
vn 0.000000 1.000000 0.000000
vn 0.000000 1.000000 0.000000
vn 0.000000 1.000000 0.000000
vn 0.000000 1.000000 0.000000
vn 0.000000 1.000000 0.000000
vn 0.000000 1.000000 0.000000
vn 0.000000 1.000000 0.000000
vn 0.000000 1.000000 0.000000
vn 0.000000 1.000000 0.000000
vn 0.000000 0.000000 1.000000
vn 0.000000 0.000000 1.000000
vn 0.000000 0.000000 1.000000
vn 0.000000 0.000000 1.000000
vn -0.951228 0.308487 0.000000
vn -0.951228 0.308487 0.000000
vn -0.951228 0.308487 0.000000
vn -0.951228 0.308487 0.000000
vn 0.000000 -1.000000 0.000000
vn 0.000000 -1.000000 0.000000
vn 0.000000 -1.000000 0.000000
vn 0.000000 -1.000000 0.000000
vn 0.000000 0.000000 -1.000000
vn 0.000000 0.000000 -1.000000
vn 0.000000 0.000000 -1.000000
vn 0.000000 0.000000 -1.000000
vn 0.000000 0.000000 -1.000000
vn 0.000000 0.000000 -1.000000
vn 0.000000 0.000000 -1.000000
vn 0.000000 0.000000 -1.000000
vn 0.000000 1.000000 0.000000
vn 0.000000 1.000000 0.000000
vn 0.000000 1.000000 0.000000
vn 0.000000 1.000000 0.000000
vn 0.000000 1.000000 0.000000
vn 0.000000 1.000000 0.000000
vn 0.000000 1.000000 0.000000
vn 0.000000 1.000000 0.000000
vn 0.000000 1.000000 0.000000
vn 0.000000 1.000000 0.000000
vn 0.000000 1.000000 0.000000
vn 0.000000 1.000000 0.000000
vn 0.000000 0.000000 1.000000
vn 0.000000 0.000000 1.000000
vn 0.000000 0.000000 1.000000
vn 0.000000 0.000000 1.000000
vn 0.000000 0.000000 1.000000
vn 0.000000 0.000000 1.000000
vn 0.000000 0.000000 1.000000
vn 0.000000 0.000000 1.000000
vn 0.000000 1.000000 0.000000
vn 0.000000 1.000000 0.000000
vn 0.000000 1.000000 0.000000
vn 0.000000 1.000000 0.000000
vn 0.000000 1.000000 0.000000
vn 0.000000 1.000000 0.000000
vn 0.000000 1.000000 0.000000
vn 0.000000 1.000000 0.000000
vn 0.000000 1.000000 0.000000
vn 0.000000 1.000000 0.000000
vn 0.000000 1.000000 0.000000
vn 0.000000 1.000000 0.000000
vn 0.000000 1.000000 0.000000
vn 0.000000 1.000000 0.000000
vn 0.000000 1.000000 0.000000
vn 0.000000 1.000000 0.000000
vn 0.000000 1.000000 0.000000
vn 0.000000 1.000000 0.000000
vn 0.000000 1.000000 0.000000
vn 0.000000 1.000000 0.000000
vn 1.000000 0.000000 0.000000
vn 1.000000 0.000000 0.000000
vn 1.000000 0.000000 0.000000
vn 1.000000 0.000000 0.000000
vn 1.000000 0.000000 0.000000
vn 1.000000 0.000000 0.000000
vn 1.000000 0.000000 0.000000
vn 1.000000 0.000000 0.000000
vn 0.000000 -1.000000 0.000000
vn 0.000000 -1.000000 0.000000
vn 0.000000 -1.000000 0.000000
vn 0.000000 -1.000000 0.000000
vn 0.000000 -1.000000 0.000000
vn 0.000000 -1.000000 0.000000
vn 0.000000 -1.000000 0.000000
vn 0.000000 -1.000000 0.000000
vn -1.000000 0.000000 0.000000
vn -1.000000 0.000000 0.000000
vn -1.000000 0.000000 0.000000
vn -1.000000 0.000000 0.000000
vn 0.000000 -1.000000 0.000000
vn 0.000000 -1.000000 0.000000
vn 0.000000 -1.000000 0.000000
vn 0.000000 -1.000000 0.000000
vn 1.000000 0.000000 0.000000
vn 1.000000 0.000000 0.000000
vn 1.000000 0.000000 0.000000
vn 1.000000 0.000000 0.000000
vn 0.000000 -1.000000 0.000000
vn 0.000000 -1.000000 0.000000
vn 0.000000 -1.000000 0.000000
vn 0.000000 -1.000000 0.000000
vn 0.000000 -1.000000 0.000000
vn 0.000000 -1.000000 0.000000
vn 0.000000 -1.000000 0.000000
vn 0.000000 -1.000000 0.000000
vn -1.000000 0.000000 0.000000
vn -1.000000 0.000000 0.000000
vn -1.000000 0.000000 0.000000
vn -1.000000 0.000000 0.000000
vn -1.000000 0.000000 0.000000
vn -1.000000 0.000000 0.000000
vn -1.000000 0.000000 0.000000
vn -1.000000 0.000000 0.000000
vn 0.000000 1.000000 0.000000
vn 0.000000 1.000000 0.000000
vn 0.000000 1.000000 0.000000
vn 0.000000 1.000000 0.000000
vn 0.000000 1.000000 0.000000
vn 0.000000 1.000000 0.000000
vn 0.000000 1.000000 0.000000
vn 0.000000 1.000000 0.000000
vn 0.000000 1.000000 0.000000
vn 0.000000 1.000000 0.000000
vn 0.000000 1.000000 0.000000
vn 0.000000 1.000000 0.000000
vn 0.000000 1.000000 0.000000
vn 0.000000 1.000000 0.000000
vn 0.000000 1.000000 0.000000
vn 0.000000 1.000000 0.000000
vn 0.000000 1.000000 0.000000
vn 0.000000 1.000000 0.000000
vn 0.000000 1.000000 0.000000
vn 0.000000 1.000000 0.000000
vn 1.000000 0.000000 0.000000
vn 1.000000 0.000000 0.000000
vn 1.000000 0.000000 0.000000
vn 1.000000 0.000000 0.000000
vn 1.000000 0.000000 0.000000
vn 1.000000 0.000000 0.000000
vn 1.000000 0.000000 0.000000
vn 1.000000 0.000000 0.000000
vn 0.000000 -1.000000 0.000000
vn 0.000000 -1.000000 0.000000
vn 0.000000 -1.000000 0.000000
vn 0.000000 -1.000000 0.000000
vn 0.000000 0.031467 0.999505
vn 0.000000 0.031467 0.999505
vn 0.000000 0.031467 0.999505
vn 0.000000 0.031467 0.999505
vn 0.000000 -1.000000 0.000000
vn 0.000000 -1.000000 0.000000
vn 0.000000 -1.000000 0.000000
vn 0.000000 -1.000000 0.000000
vn -1.000000 0.000000 0.000000
vn -1.000000 0.000000 0.000000
vn -1.000000 0.000000 0.000000
vn -1.000000 0.000000 0.000000
vn -1.000000 0.000000 0.000000
vn -1.000000 0.000000 0.000000
vn -1.000000 0.000000 0.000000
vn -1.000000 0.000000 0.000000
vn 0.000000 0.000000 -1.000000
vn 0.000000 0.000000 -1.000000
vn 0.000000 0.000000 -1.000000
vn 0.000000 0.000000 -1.000000
vn -1.000000 0.000000 0.000000
vn -1.000000 0.000000 0.000000
vn -1.000000 0.000000 0.000000
vn -1.000000 0.000000 0.000000
vn 0.000000 0.000000 1.000000
vn 0.000000 0.000000 1.000000
vn 0.000000 0.000000 1.000000
vn 0.000000 0.000000 1.000000
vn 1.000000 0.000000 0.000000
vn 1.000000 0.000000 0.000000
vn 1.000000 0.000000 0.000000
vn 1.000000 0.000000 0.000000
vn -0.012302 0.000715 0.999924
vn -0.012302 0.000715 0.999924
vn -0.012302 0.000715 0.999924
vn -0.012302 0.000715 0.999924
vn 0.984662 0.012533 -0.174024
vn 0.984662 0.012533 -0.174024
vn 0.984662 0.012533 -0.174024
vn 0.984662 0.012533 -0.174024
vn -0.992434 0.008820 -0.122462
vn -0.992434 0.008820 -0.122462
vn -0.992434 0.008820 -0.122462
vn -0.992434 0.008820 -0.122462
vn 0.011629 0.000769 0.999932
vn 0.011629 0.000769 0.999932
vn 0.011629 0.000769 0.999932
vn 0.011629 0.000769 0.999932
vn 0.066823 0.004416 -0.997755
vn 0.066823 0.004416 -0.997755
vn 0.066823 0.004416 -0.997755
vn 0.066823 0.004416 -0.997755
vn -0.991455 0.008263 0.130185
vn -0.991455 0.008263 0.130185
vn -0.991455 0.008263 0.130185
vn -0.991455 0.008263 0.130185
vn 0.982704 0.011731 0.184814
vn 0.982704 0.011731 0.184814
vn 0.982704 0.011731 0.184814
vn 0.982704 0.011731 0.184814
vn -0.070674 0.004105 -0.997491
vn -0.070674 0.004105 -0.997491
vn -0.070674 0.004105 -0.997491
vn -0.070674 0.004105 -0.997491
s off
g Case
usemtl initialShadingGroup
f 56/63/1 45/51/2 2/2/3 4/4/4
f 55/62/5 70/78/6 71/79/7 6/6/8
f 52/59/9 53/60/10 14/20/11 15/21/12
f 74/83/13 75/84/14 25/32/15 27/33/16
f 7/13/17 84/93/18 69/76/19 5/14/20
f 54/61/21 55/62/22 6/6/23 10/16/24
f 104/115/25 101/111/26 8/8/27 11/17/28
f 8/8/29 48/55/30 49/56/31 11/17/32
f 7/7/33 5/5/34 9/15/35 12/18/36
f 53/60/37 86/96/38 87/97/39 14/20/40
f 90/100/41 91/101/42 31/37/43 32/38/44
f 97/107/45 98/108/46 51/58/47 38/44/48
f 100/110/49 85/95/50 13/19/51 16/22/52
f 79/88/53 80/89/54 8/11/55 17/24/56
f 8/11/57 101/112/58 102/113/59 17/24/60
f 6/12/61 71/80/62 72/81/63 19/25/64
f 4/4/65 2/2/66 18/23/67 20/26/68
f 103/114/69 104/115/70 11/17/71 22/28/72
f 95/105/73 96/106/74 15/21/75 23/29/76
f 15/21/77 14/20/78 24/30/79 23/29/80
f 14/20/81 87/97/82 88/98/83 24/30/84
f 76/85/85 77/86/86 68/75/87 40/46/88
f 64/71/89 73/82/90 74/83/91 27/33/92
f 65/72/93 66/73/94 26/31/95 28/34/96
f 92/102/97 93/103/98 60/67/99 43/49/100
f 61/68/101 62/69/102 32/38/103 31/37/104
f 62/69/105 89/99/106 90/100/107 32/38/108
f 17/24/109 102/113/110 103/114/111 22/28/112
f 63/70/113 64/71/114 27/33/115 29/35/116
f 27/33/117 25/32/118 30/36/119 29/35/120
f 25/32/121 57/64/122 58/65/123 30/36/124
f 2/10/125 45/52/126 46/53/127 34/40/128
f 83/92/129 84/94/130 7/7/131 33/39/132
f 99/109/133 100/110/134 16/22/135 37/43/136
f 51/58/137 52/59/138 15/21/139 38/44/140
f 15/21/141 96/106/142 97/107/143 38/44/144
f 68/75/145 57/64/146 25/32/147 40/46/148
f 25/32/149 75/84/150 76/85/151 40/46/152
f 26/31/153 66/73/154 67/74/155 41/47/156
f 94/104/157 95/105/158 23/29/159 42/48/160
f 60/67/161 61/68/162 31/37/163 43/49/164
f 31/37/165 91/101/166 92/102/167 43/49/168
f 30/36/169 58/65/170 59/66/171 44/50/172
f 46/53/173 45/52/174 1/9/175 35/41/176
f 33/39/177 47/54/178 82/91/179 83/92/180
f 7/7/181 48/55/182 47/54/183 33/39/184
f 49/56/185 48/55/186 7/7/187 12/18/188
f 50/57/189 49/56/190 12/18/191 36/42/192
f 51/58/193 98/108/194 99/109/195 37/43/196
f 16/22/197 52/59/198 51/58/199 37/43/200
f 13/19/201 53/60/202 52/59/203 16/22/204
f 85/95/205 86/96/206 53/60/207 13/19/208
f 5/5/209 55/62/210 54/61/211 9/15/212
f 69/77/213 70/78/214 55/62/215 5/5/216
f 1/1/217 45/51/218 56/63/219 3/3/220
f 58/65/221 57/64/222 17/24/223 22/28/224
f 93/103/225 94/104/226 42/48/227 60/67/228
f 23/29/229 61/68/230 60/67/231 42/48/232
f 23/29/233 24/30/234 62/69/235 61/68/236
f 24/30/237 88/98/238 89/99/239 62/69/240
f 19/25/241 64/71/242 63/70/243 21/27/244
f 19/25/245 72/81/246 73/82/247 64/71/248
f 20/26/249 18/23/250 66/73/251 65/72/252
f 67/74/253 66/73/254 18/23/255 39/45/256
f 3/3/257 56/63/258 70/78/259 69/77/260
f 71/79/261 70/78/262 56/63/263 4/4/264
f 72/81/265 71/80/266 4/4/267 20/26/268
f 73/82/269 72/81/270 20/26/271 65/72/272
f 74/83/273 73/82/274 65/72/275 28/34/276
f 26/31/277 75/84/278 74/83/279 28/34/280
f 76/85/281 75/84/282 26/31/283 41/47/284
f 67/74/285 77/86/286 76/85/287 41/47/288
f 39/45/289 78/87/290 77/86/291 67/74/292
f 18/23/293 79/88/294 78/87/295 39/45/296
f 2/2/297 80/89/298 79/88/299 18/23/300
f 81/90/301 80/89/302 2/10/303 34/40/304
f 46/53/305 82/91/306 81/90/307 34/40/308
f 83/92/309 82/91/310 46/53/311 35/41/312
f 1/9/313 84/94/314 83/92/315 35/41/316
f 69/76/317 84/93/318 1/1/319 3/3/320
f 9/15/321 54/61/322 86/96/323 85/95/324
f 87/97/325 86/96/326 54/61/327 10/16/328
f 88/98/329 87/97/330 10/16/331 21/27/332
f 89/99/333 88/98/334 21/27/335 63/70/336
f 90/100/337 89/99/338 63/70/339 29/35/340
f 29/35/341 30/36/342 91/101/343 90/100/344
f 92/102/345 91/101/346 30/36/347 44/50/348
f 59/66/349 93/103/350 92/102/351 44/50/352
f 11/17/353 96/106/354 95/105/355 22/28/356
f 99/109/357 98/108/358 50/57/359 36/42/360
f 12/18/361 100/110/362 99/109/363 36/42/364
f 12/18/365 9/15/366 85/95/367 100/110/368
f 102/113/369 101/112/370 6/12/371 19/25/372
f 103/114/373 102/113/374 19/25/375 21/27/376
f 10/16/377 104/115/378 103/114/379 21/27/380
f 6/6/381 101/111/382 104/115/383 10/16/384
f 96/106/385 11/17/386 98/108/387 97/107/388
f 11/17/389 49/56/390 50/57/391 98/108/392
f 58/65/393 22/28/394 93/103/395 59/66/396
f 22/28/397 95/105/398 94/104/399 93/103/400
f 79/88/401 17/24/402 77/86/403 78/87/404
f 17/24/405 57/64/406 68/75/407 77/86/408
f 48/55/409 8/8/410 82/91/411 47/54/412
f 8/11/413 80/89/414 81/90/415 82/91/416
