# This file uses centimeters as units for non-parametric coordinates.

mtllib OuterWalls.mtl
g default
v 3.744205 5.740611 -6.075240
v 3.744205 5.740611 4.760432
v -6.684886 5.740611 -6.075240
v -6.642487 5.740611 4.760432
v 3.517128 -0.083539 -5.825505
v 3.656646 -0.006549 -5.984266
v 3.656646 -0.006549 4.669462
v 3.517128 -0.083539 4.510701
v -6.454582 -0.083539 -5.822220
v -6.597302 -0.006586 -5.984237
v -6.555612 -0.006586 4.669433
v -6.414161 -0.083539 4.507416
v 3.713754 0.068786 -6.043601
v 3.744205 0.155692 -6.075240
v 3.744205 0.155692 4.760435
v 3.713754 0.068786 4.728796
v -6.642487 0.155697 4.760435
v -6.612279 0.068780 4.728792
v -6.654433 0.068781 -6.043597
v -6.684886 0.155697 -6.075240
vt 0.980695 0.231471
vt 0.987979 0.240378
vt 0.987176 0.232391
vt 0.988665 0.232374
vt 0.006962 0.241123
vt 0.983759 0.232611
vt 0.010940 0.239835
vt 0.979857 0.244650
vt 0.987979 0.252570
vt 0.987979 0.245578
vt 0.989479 0.245477
vt 0.006962 0.253787
vt 0.982905 0.245770
vt 0.010940 0.251668
vt 0.006961 0.770396
vt 0.987979 0.771774
vt 0.010940 0.772736
vt 0.016805 0.239416
vt 0.015971 0.231378
vt 0.016805 0.249713
vt 0.006792 0.252396
vt 0.006792 0.771914
vt 0.016805 0.773548
vt 0.016805 0.244650
vt 0.006792 0.240276
vt 0.982905 0.240580
vt 0.010940 0.245050
vt 0.982905 0.252890
vt 0.982906 0.771354
vt 0.011750 0.231825
vt 0.989479 0.240276
vt 0.006962 0.246295
vt 0.989479 0.252396
vt 0.989479 0.771914
vt 0.006110 0.233266
vt 0.006792 0.245477
vt 0.979857 0.239419
vt 0.979857 0.773548
vt 0.979857 0.249712
vt 0.007605 0.232374
vn 0.000069 0.901557 0.432660
vn 0.000069 0.901557 0.432660
vn 0.000069 0.901557 0.432660
vn 0.000069 0.901557 0.432660
vn -0.483148 0.875539 0.000000
vn -0.483148 0.875539 0.000000
vn -0.483148 0.875539 0.000000
vn -0.483148 0.875539 0.000000
vn 0.000070 0.901557 -0.432661
vn 0.000070 0.901557 -0.432661
vn 0.000070 0.901557 -0.432661
vn 0.000070 0.901557 -0.432661
vn 0.476234 0.879317 -0.001864
vn 0.476234 0.879316 -0.001864
vn 0.476234 0.879316 -0.001864
vn 0.476234 0.879316 -0.001864
vn 0.000000 0.368337 0.929692
vn -0.000000 0.001814 0.999998
vn -0.000000 0.001814 0.999998
vn 0.000000 0.368338 0.929692
vn -0.999986 0.005313 0.000000
vn -0.880938 0.473231 0.000000
vn -0.880938 0.473231 0.000000
vn -0.999986 0.005313 0.000000
vn 0.000000 0.001814 -0.999998
vn 0.000000 0.368334 -0.929693
vn 0.000000 0.368553 -0.929607
vn 0.000000 0.001826 -0.999998
vn 0.999974 0.006124 -0.003913
vn 0.869155 0.494527 -0.003401
vn 0.893950 0.448152 -0.003498
vn 0.999982 0.004456 -0.003913
vn -1.000000 0.000000 0.000000
vn -1.000000 0.000000 0.000000
vn -0.000000 0.000000 1.000000
vn -0.000000 0.000000 1.000000
vn 0.000000 -0.000001 -1.000000
vn 0.000000 -0.000001 -1.000000
vn -0.796908 0.604101 0.000000
vn -0.796908 0.604101 0.000000
vn 0.000000 0.618743 -0.785594
vn 0.000000 0.618743 -0.785593
vn 0.000000 0.618744 0.785593
vn 0.000000 0.618744 0.785593
vn 0.798093 0.602526 -0.003123
vn 0.798093 0.602526 -0.003123
vn 0.999992 0.000000 -0.003913
vn 0.999992 0.000000 -0.003913
s off
g OuterWalls
usemtl initialShadingGroup
f 5/1/1 6/37/2 10/18/3 9/19/4
f 6/25/5 5/40/6 8/4/7 7/31/8
f 7/5/9 8/35/10 12/6/11 11/26/12
f 9/3/13 10/2/14 11/7/15 12/30/16
s 1
f 13/8/17 14/39/18 20/20/19 19/24/20
s 2
f 14/21/21 13/36/22 16/11/23 15/33/24
s 3
f 15/12/25 16/32/26 18/13/27 17/28/28
s 4
f 17/14/29 18/27/30 19/10/31 20/9/32
s 2
f 1/22/33 14/21/21 15/33/24 2/34/34
s 1
f 20/20/19 14/39/18 1/38/35 3/23/36
s 3
f 2/15/37 15/12/25 17/28/28 4/29/38
s 2
f 16/11/23 13/36/22 6/25/39 7/31/40
s 3
f 18/13/27 16/32/26 7/5/41 11/26/42
s 1
f 6/37/43 13/8/17 19/24/20 10/18/44
s 4
f 10/2/45 19/10/31 18/27/30 11/7/46
f 20/9/32 3/16/47 4/17/48 17/14/29
